<svg width="40" height="40" viewBox="0 0 40 40" fill="none" xmlns="http://www.w3.org/2000/svg">
  <!-- 底层柔和圆角矩形 (Slate-100) -->
  <rect width="40" height="40" rx="12" fill="#f1f5f9" />
  
  <!-- 猫咪主体 (Slate-800) -->
  <path d="M10 24C10 18.4772 14.4772 14 20 14C25.5228 14 30 18.4772 30 24V32H10V24Z" fill="#1e293b" />
  
  <!-- 耳朵 -->
  <path d="M12 15L16 6L21 13" fill="#1e293b" />
  <path d="M28 15L24 6L19 13" fill="#1e293b" />
  
  <!-- 眼睛 -->
  <rect x="15" y="20" width="3" height="1.5" rx="0.75" fill="white" />
  <rect x="22" y="20" width="3" height="1.5" rx="0.75" fill="white" />
  
  <!-- 动态的小星星 -->
  <path d="M30 8L31 10.5L33.5 11.5L31 12.5L30 15L29 12.5L26.5 11.5L29 10.5L30 8Z" fill="#FACC15">
    <animate attributeName="opacity" values="1;0.4;1" dur="3s" repeatCount="indefinite" />
  </path>
</svg>
